<?xml version="1.0" encoding="iso-8859-1"?>
<!-- Generator: Adobe Illustrator 22.1.0, SVG Export Plug-In . SVG Version: 6.00 Build 0)  -->
<svg xmlns="http://www.w3.org/2000/svg" xmlns:xlink="http://www.w3.org/1999/xlink" version="1.1" x="0px" y="0px" viewBox="0 0 24 24" style="enable-background:new 0 0 24 24;" xml:space="preserve" width="24px" height="24px">
<g id="Rounded">
	<path d="M7.005,9.188H5.5v2.548h1.469c0.467,0,0.823-0.106,1.069-0.318c0.246-0.212,0.368-0.519,0.368-0.92   c0-0.395-0.124-0.71-0.374-0.946C7.784,9.315,7.441,9.194,7.005,9.188z"/>
	<path d="M21,5h-7v2h2h2h2v2v2v2v2v2h-2h-2h-2v2h7c0.552,0,1-0.448,1-1V6C22,5.448,21.552,5,21,5z"/>
	
		<line style="fill:none;stroke:#000000;stroke-width:2;stroke-linecap:round;stroke-miterlimit:10;" x1="17" y1="14" x2="15" y2="14"/>
	<path d="M16,10V8c-1.105,0-2,0.895-2,2s0.895,2,2,2c1.105,0,2-0.895,2-2H16z"/>
	<path d="M10.804,3.239l-8,1.6C2.336,4.933,2,5.343,2,5.82v12.36c0,0.477,0.336,0.887,0.804,0.981l8,1.6   C11.423,20.885,12,20.411,12,19.78V4.22C12,3.589,11.423,3.115,10.804,3.239z M7.044,13.033H5.5v2.212   C5.5,15.662,5.162,16,4.745,16h0c-0.417,0-0.755-0.338-0.755-0.755V8.755C3.989,8.338,4.327,8,4.745,8h2.317   C7.958,8,8.67,8.233,9.198,8.698c0.528,0.466,0.791,1.082,0.791,1.848c0,0.785-0.258,1.395-0.775,1.832   C8.698,12.815,7.974,13.033,7.044,13.033z"/>
</g>
</svg>
